# xmcd
# Copyright (C) 1995-1998 Ti Kan
#
# Track frame offsets:
#       150
#       16312
#       40852
#       63522
#       82252
#
# Disc length: 1325 seconds
#
# Revision: 0
# Processed by: cddbd v1.4PL0 Copyright (c) Steve Scherf et al.
# Submitted via: CD-Transfer v1.0
#
DISCID=3b052b05
DTITLE=Brunch Box - We Can't Buy
DYEAR=1993
DGENRE=
TTITLE0=You Left Me
TTITLE1=Everybody Wants Freedom
TTITLE2=You Can't Buy
TTITLE3=Take Me Closer
TTITLE4=Rosanne
EXTD=
EXTT0=
EXTT1=
EXTT2=
EXTT3=
EXTT4=
PLAYORDER=
